<svg xmlns="http://www.w3.org/2000/svg" width="1054" height="990" viewBox="0 0 1054 990"><g fill="none" fill-rule="evenodd" transform="translate(1.055 .847)"><path fill="#FFF" stroke="#FFF" d="M760,10 L760,173 C760,178.522847 755.522847,183 750,183 L10,183 C4.4771525,183 4.44765564e-13,178.522847 4.54747351e-13,173 L4.54747351e-13,10 C4.54070997e-13,4.4771525 4.4771525,-4.51956463e-13 10,-4.54747351e-13 L750,-4.54747351e-13 C755.522847,-4.55761882e-13 760,4.4771525 760,10 Z"/><path fill="#FFF" stroke="#FFF" d="M487,152 L487,978 C487,983.522847 482.522847,988 477,988 L284,988 C278.477153,988 274,983.522847 274,978 L274,152 C274,146.477153 278.477153,142 284,142 L477,142 C482.522847,142 487,146.477153 487,152 Z"/><path fill="#FFF" stroke="#000" d="M1045,357 L1045,978 C1045,983.522847 1040.52285,988 1035,988 L842,988 C836.477153,988 832,983.522847 832,978 L832,357 C832,351.477153 836.477153,347 842,347 L1035,347 C1040.52285,347 1045,351.477153 1045,357 Z"/><path fill="#6D7278" stroke="#000" d="M1052,171 L1052,224 C1052,268.18278 1016.18278,304 972,304 L919,304 C874.81722,304 839,268.18278 839,224 L839,171 C839,126.81722 874.81722,91 919,91 L972,91 C1016.18278,91 1052,126.81722 1052,171 Z"/></g></svg>