<svg xmlns="http://www.w3.org/2000/svg" width="1054" height="990" viewBox="0 0 1054 990"><g fill="none" fill-rule="evenodd" stroke="#000" transform="translate(1.055 .847)"><path fill="#000" d="M760,10 L760,173 C760,178.522847 755.522847,183 750,183 L10,183 C4.4771525,183 -9.98178729e-15,178.522847 0,173 L0,10 C-6.76353751e-16,4.4771525 4.4771525,2.30164563e-13 10,2.27373675e-13 L750,2.27373675e-13 C755.522847,2.26359145e-13 760,4.4771525 760,10 Z"/><path fill="#000" d="M487 152 487 978C487 983.522847 482.522847 988 477 988L284 988C278.477153 988 274 983.522847 274 978L274 152C274 146.477153 278.477153 142 284 142L477 142C482.522847 142 487 146.477153 487 152ZM1045 357 1045 978C1045 983.522847 1040.52285 988 1035 988L842 988C836.477153 988 832 983.522847 832 978L832 357C832 351.477153 836.477153 347 842 347L1035 347C1040.52285 347 1045 351.477153 1045 357Z"/><path fill="#6D7278" d="M1052,171 L1052,224 C1052,268.18278 1016.18278,304 972,304 L919,304 C874.81722,304 839,268.18278 839,224 L839,171 C839,126.81722 874.81722,91 919,91 L972,91 C1016.18278,91 1052,126.81722 1052,171 Z"/></g></svg>